<svg width="91" height="100" viewBox="0 0 91 100" fill="none" xmlns="http://www.w3.org/2000/svg">
<path d="M83.9823 63.3314L83.983 63.3314L85.6568 63.3314C86.0832 63.3314 86.492 63.5007 86.7935 63.8022C87.0949 64.1036 87.2643 64.5125 87.2643 64.9388V66.6129V66.6134C87.2596 70.8272 85.5836 74.8669 82.604 77.8465C79.6245 80.826 75.5847 82.502 71.371 82.5067H71.3704H71.3037V88.8873C76.631 89.1606 81.798 90.8188 86.2926 93.7018C86.4715 93.8146 86.6264 93.9616 86.7484 94.1343C86.871 94.3079 86.958 94.504 87.0043 94.7114L86.5163 94.8204L87.0043 94.7114C87.0506 94.9188 87.0553 95.1333 87.0182 95.3425C86.981 95.5517 86.9028 95.7515 86.788 95.9303C86.6731 96.1091 86.524 96.2633 86.3492 96.3841C86.1744 96.5049 85.9774 96.5898 85.7695 96.634C85.5617 96.6781 85.3471 96.6806 85.1383 96.6414C84.9306 96.6023 84.7326 96.5226 84.5556 96.4069C80.1196 93.5678 74.9631 92.059 69.6963 92.059C64.4287 92.059 59.2713 93.5683 54.8349 96.4082L83.9823 63.3314ZM83.9823 63.3314C80.8083 63.3352 77.708 64.288 75.0796 66.0674C72.7678 67.6324 70.914 69.774 69.6963 72.2713M83.9823 63.3314L69.6963 72.2713M69.6963 72.2713C68.4786 69.774 66.6248 67.6324 64.313 66.0674C61.6846 64.288 58.5843 63.3352 55.4103 63.3314H55.4097H53.7358C53.3095 63.3314 52.9006 63.5007 52.5992 63.8022C52.2977 64.1036 52.1284 64.5125 52.1284 64.9388V66.6129V66.6134C52.1331 70.8271 53.8091 74.8669 56.7886 77.8465C59.7681 80.826 63.8079 82.502 68.0216 82.5067H68.0222H68.0889V88.8873C62.7608 89.1607 57.593 90.8194 53.0979 93.7031C51.4294 94.7718 49.4896 95.3398 47.5083 95.3398C45.5269 95.3397 43.5871 94.7717 41.9187 93.7029C37.4235 90.8194 32.2559 89.161 26.928 88.8876V82.5067H26.9946H26.9951C31.2089 82.502 35.2487 80.826 38.2283 77.8465C41.2079 74.867 42.8839 70.8272 42.8887 66.6134V66.6129V64.9388C42.8887 64.5125 42.7193 64.1036 42.4179 63.8022V63.8022C42.1164 63.5007 41.7075 63.3314 41.2812 63.3314L39.6071 63.3314L39.6065 63.3314C36.4326 63.3352 33.3322 64.288 30.7039 66.0673C28.3921 67.6323 26.5383 69.7738 25.3206 72.2712C24.1029 69.7738 22.2491 67.6323 19.9373 66.0673C17.309 64.288 14.2086 63.3352 11.0347 63.3314H11.0341H9.36008C8.93377 63.3314 8.52491 63.5007 8.22346 63.8022C7.922 64.1036 7.75266 64.5125 7.75266 64.9388L7.75265 66.6129L7.75266 66.6134C7.7574 70.8272 9.43341 74.8669 12.413 77.8465C15.3925 80.826 19.4323 82.502 23.646 82.5067H23.6466H23.7132V88.8876C18.3853 89.161 13.2178 90.8195 8.72265 93.7029L8.72237 93.703C8.36368 93.9335 8.11122 94.2969 8.02052 94.7135C7.92982 95.13 8.00831 95.5656 8.23872 95.9242L8.23872 95.9243C8.46913 96.2829 8.8326 96.5354 9.24915 96.6261C9.66545 96.7167 10.1007 96.6384 10.4593 96.4083L69.6963 72.2713ZM25.3205 92.059C20.0532 92.0591 14.8962 93.5682 10.4599 96.4079L25.3205 92.059ZM25.3205 92.059C30.588 92.059 35.7452 93.5682 40.1817 96.408M25.3205 92.059L40.1817 96.408M40.1817 96.408C42.3685 97.809 44.9111 98.5537 47.5082 98.5538M40.1817 96.408L47.5082 98.5538M47.5082 98.5538C50.1053 98.5538 52.6479 97.8093 54.8347 96.4083L47.5082 98.5538ZM39.6077 66.5462L39.6738 66.5462V66.6123C39.67 69.974 38.3329 73.1969 35.9558 75.574C33.5787 77.951 30.3557 79.2881 26.994 79.2919H26.928V79.226C26.9318 75.8643 28.2689 72.6414 30.646 70.2643C33.023 67.8872 36.2459 66.5501 39.6075 66.5462C39.6076 66.5462 39.6076 66.5462 39.6077 66.5462ZM10.9675 66.6123L10.9675 66.5462L11.0335 66.5462C11.0336 66.5462 11.0336 66.5462 11.0337 66.5462C14.3953 66.5501 17.6182 67.8872 19.9952 70.2643C22.3723 72.6414 23.7094 75.8643 23.7132 79.226V79.2919H23.6472C20.2855 79.2881 17.0626 77.951 14.6855 75.5739C12.3085 73.1969 10.9714 69.9741 10.9675 66.6125C10.9675 66.6124 10.9675 66.6124 10.9675 66.6123ZM55.3431 66.6123V66.5462L55.409 66.5462C55.4091 66.5462 55.4092 66.5462 55.4092 66.5462C58.7709 66.5501 61.9937 67.8872 64.3708 70.2643C66.7479 72.6414 68.085 75.8643 68.0888 79.226V79.2919H68.0227C64.661 79.2881 61.4381 77.951 59.0611 75.5739C56.6841 73.1969 55.3469 69.974 55.3431 66.6123ZM84.0493 66.6123C84.0456 69.974 82.7085 73.1969 80.3314 75.574C77.9543 77.951 74.7315 79.2881 71.3698 79.2919H71.3037V79.226C71.3076 75.8643 72.6447 72.6414 75.0218 70.2643C77.3988 67.8872 80.6217 66.5501 83.9833 66.5462C83.9834 66.5462 83.9835 66.5462 83.9835 66.5462L84.0494 66.5462L84.0493 66.6123Z" fill="#285A43" stroke="#285A43"/>
<path d="M18.9237 48.3196L1.99671 31.3927L1.99669 31.3927C1.45769 30.8536 1.0461 30.2008 0.792083 29.4821C0.538066 28.7633 0.448053 27.9969 0.528635 27.2388C0.609218 26.4808 0.858355 25.7504 1.2578 25.1012C1.65724 24.4519 2.19687 23.9002 2.83716 23.4865L3.1085 23.9065L2.83716 23.4865L8.80583 19.6302L7.59253 18.4169L7.59212 18.4165C5.97555 16.7962 5.06768 14.6008 5.06768 12.312C5.06768 10.0232 5.97555 7.82782 7.59212 6.20752L7.59255 6.20709L9.82479 3.97504C10.6265 3.17331 11.5783 2.53734 12.6258 2.10345C13.6733 1.66955 14.796 1.44623 15.9298 1.44623C17.0636 1.44623 18.1863 1.66955 19.2338 2.10345C20.2813 2.53734 21.233 3.17331 22.0347 3.97504L21.6812 4.32859L22.0348 3.97504L27.255 9.19545L27.2564 9.19666L27.2712 9.2115L41.1453 23.0858C41.4052 23.3457 41.5682 23.6869 41.607 24.0525C41.6459 24.4181 41.5582 24.7859 41.3587 25.0947L38.49 29.5348L47.9434 30.7122L51.5502 28.4361L51.817 28.8589L51.5502 28.436C51.7933 28.2826 52.0732 28.1972 52.3606 28.1887C52.648 28.1803 52.9324 28.249 53.1842 28.3879C53.4359 28.5267 53.6459 28.7305 53.7921 28.9781C53.9383 29.2257 54.0154 29.5079 54.0154 29.7954V39.7459C54.0154 40.0334 53.9383 40.3157 53.7921 40.5633C53.6459 40.8108 53.436 41.0147 53.1842 41.1535L52.9427 40.7157L53.1842 41.1535C52.9324 41.2923 52.648 41.3611 52.3606 41.3526C52.0732 41.3442 51.7933 41.2588 51.5502 41.1053L51.5501 41.1053L47.9434 38.829L31.1323 40.9227L26.8705 47.5188L18.9237 48.3196ZM18.9237 48.3196L18.9633 48.3594C19.4364 48.8345 19.9987 49.2114 20.6179 49.4685C21.2371 49.7255 21.901 49.8577 22.5714 49.8573C22.754 49.8572 22.9363 49.8474 23.1178 49.8281C23.1179 49.828 23.1181 49.828 23.1182 49.828L23.0651 49.3308C23.7493 49.2596 24.4087 49.0354 24.9946 48.675L18.9237 48.3196ZM48.1167 33.9734L48.1178 33.9736C48.4858 34.0186 48.8582 33.9355 49.1721 33.7382L49.173 33.7377L50.8005 32.7106V36.8306L49.173 35.8035L49.1725 35.8031C48.8584 35.6054 48.4857 35.5223 48.1173 35.5676L48.1167 35.5677L33.4086 37.3995L36.5527 32.5332L48.1167 33.9734ZM3.72536 27.5797L3.72558 27.5776C3.75486 27.2966 3.84692 27.0258 3.99495 26.7851C4.14299 26.5445 4.34322 26.3402 4.58084 26.1874L4.58168 26.1868L25.9162 12.4029L37.9538 24.4407L24.1697 45.7749L24.1697 45.7749C24.0162 46.0124 23.8116 46.2126 23.5708 46.3608C23.3299 46.509 23.059 46.6014 22.7778 46.6313C22.4966 46.6612 22.2123 46.6278 21.9457 46.5335C21.6791 46.4393 21.437 46.2866 21.2371 46.0866L21.237 46.0866L4.27 29.1196L4.26928 29.1189C4.06907 28.9195 3.91625 28.6777 3.8221 28.4112C3.72795 28.1448 3.69489 27.8606 3.72536 27.5797ZM9.86619 16.1444C8.85135 15.1272 8.28142 13.749 8.28142 12.3121C8.28142 10.8752 8.85135 9.49704 9.86619 8.47985L12.098 6.2482C13.1143 5.23204 14.4926 4.66118 15.9297 4.66118C17.3668 4.66118 18.7451 5.23204 19.7613 6.24819C19.7614 6.24819 19.7614 6.2482 19.7614 6.2482L23.591 10.0778L11.5677 17.8459L9.86619 16.1444Z" fill="#285A43" stroke="#285A43"/>
<path d="M73.0947 46.7227L73.0947 46.7227L68.9585 43.0335L69.2753 42.6467C69.2751 42.6465 69.2748 42.6463 69.2746 42.6461C69.1115 42.5127 68.9237 42.4126 68.7219 42.3516C68.5198 42.2905 68.3077 42.2698 68.0976 42.2907C67.8876 42.3116 67.6837 42.3737 67.4976 42.4734C67.3115 42.5731 67.1469 42.7084 67.0132 42.8717C66.743 43.2015 66.615 43.6252 66.6572 44.0494C66.6994 44.4736 66.9083 44.8637 67.2382 45.1339L67.2398 45.1352C68.466 46.1309 69.5517 47.2882 70.4673 48.5754C70.7129 48.9233 71.0865 49.1596 71.5061 49.2323C71.9262 49.3051 72.3579 49.2081 72.7064 48.9626C73.0549 48.717 73.2916 48.3431 73.3645 47.923C73.4373 47.503 73.3402 47.0712 73.0947 46.7227Z" fill="#285A43" stroke="#285A43"/>
<path d="M73.3921 57.3842L73.3921 57.3842C73.3226 55.8071 73.0424 54.2463 72.5589 52.7434L73.0349 52.5903L72.5597 52.7459C72.494 52.5453 72.4685 52.3337 72.4846 52.1232C72.5007 51.9128 72.5581 51.7075 72.6535 51.5192C72.749 51.3309 72.8806 51.1633 73.0408 51.0258C73.201 50.8885 73.3867 50.784 73.5873 50.7184L73.3921 57.3842ZM73.3921 57.3842L73.3922 57.3866M73.3921 57.3842L73.3922 57.3866M73.3922 57.3866C73.4124 57.7986 73.5901 58.1872 73.8887 58.4718C74.1873 58.7565 74.5839 58.9154 74.9964 58.9158H74.9969M73.3922 57.3866L74.9969 58.9158M74.9969 58.9158C75.0239 58.9158 75.0491 58.9151 75.0712 58.9142L75.0712 58.9142M74.9969 58.9158L75.0712 58.9142M75.0712 58.9142L75.0761 58.914M75.0712 58.9142L75.0761 58.914M75.0761 58.914C75.5019 58.8932 75.902 58.7041 76.1884 58.3884C76.4744 58.0732 76.6237 57.6574 76.6036 57.2323C76.5204 55.3683 76.1881 53.5239 75.6155 51.7481L75.6155 51.7481M75.0761 58.914L75.6155 51.7481M75.6155 51.7481L75.6149 51.7461M75.6155 51.7481L75.6149 51.7461M75.6149 51.7461C75.5493 51.5455 75.4448 51.3597 75.3074 51.1995C75.1699 51.0392 75.0023 50.9076 74.814 50.8122L74.5938 51.2466M75.6149 51.7461L74.5938 51.2466M74.5938 51.2466L74.814 50.8122C74.6257 50.7167 74.4205 50.6593 74.21 50.6432M74.5938 51.2466L74.21 50.6432M74.21 50.6432C73.9995 50.6271 73.788 50.6526 73.5874 50.7183L74.21 50.6432Z" fill="#285A43" stroke="#285A43"/>
<path d="M63.1913 42.5328L63.1913 42.5328L63.1945 42.5344C63.3833 42.629 63.5888 42.6854 63.7993 42.7006C64.0099 42.7157 64.2213 42.6892 64.4217 42.6226C64.622 42.556 64.8072 42.4506 64.9668 42.3124C65.1264 42.1742 65.2572 42.006 65.3517 41.8172C65.4463 41.6285 65.5027 41.423 65.5178 41.2124C65.533 41.0019 65.5065 40.7904 65.4399 40.5901L64.9654 40.7479L65.4399 40.5901C65.3733 40.3898 65.2679 40.2046 65.1297 40.045C64.992 39.886 64.8245 39.7556 64.6366 39.6611C62.98 38.8136 61.232 38.1582 59.4266 37.7076L59.4179 37.7054L59.4091 37.7035C58.9939 37.6156 58.5607 37.6955 58.2041 37.9257C57.8476 38.156 57.5965 38.518 57.5058 38.9326C57.4151 39.3473 57.4922 39.781 57.7201 40.1391C57.9466 40.495 58.3038 40.7475 58.7147 40.8423C60.2647 41.239 61.766 41.806 63.1913 42.5328Z" fill="#285A43" stroke="#285A43"/>
<path d="M78.8236 38.8645L78.8235 38.8645L78.8289 38.8684C80.1281 39.8099 81.319 40.8925 82.3798 42.0962C82.6615 42.4162 83.0588 42.6112 83.4843 42.6383C83.9097 42.6654 84.3285 42.5224 84.6486 42.2407C84.9686 41.959 85.1636 41.5617 85.1906 41.1362C85.2177 40.7107 85.0747 40.2919 84.793 39.9719L84.7928 39.9717C83.5748 38.5897 82.2075 37.3468 80.7159 36.2658L80.7159 36.2658L80.7108 36.2622C80.3654 36.0185 79.9379 35.9206 79.5209 35.9898C79.1039 36.059 78.731 36.2897 78.4828 36.6319C78.2346 36.9741 78.1313 37.4002 78.195 37.8181C78.2588 38.236 78.4846 38.6119 78.8236 38.8645Z" fill="#285A43" stroke="#285A43"/>
<path d="M70.0277 34.8698L70.0277 34.8697C69.616 34.7645 69.2626 34.5006 69.045 34.1356C68.8274 33.7706 68.7632 33.3343 68.8664 32.922C68.9695 32.5098 69.2318 32.1552 69.5957 31.9358C69.9596 31.7164 70.3956 31.65 70.8083 31.7512L70.8097 31.7515L70.8097 31.7515C72.5755 32.1897 74.2992 32.7831 75.9605 33.5247L70.0277 34.8698ZM70.0277 34.8698L70.0311 34.8706M70.0277 34.8698L70.0311 34.8706M70.0311 34.8706C71.6125 35.2628 73.1561 35.7939 74.6441 36.4576M70.0311 34.8706L74.6441 36.4576M74.6441 36.4576C74.8363 36.5445 75.0437 36.5926 75.2546 36.5993C75.466 36.606 75.6766 36.571 75.8744 36.4962C76.0722 36.4214 76.2532 36.3083 76.4073 36.1633C76.5613 36.0184 76.6852 35.8445 76.7719 35.6516C76.8585 35.4588 76.9063 35.2507 76.9124 35.0393C76.9186 34.8279 76.8829 34.6174 76.8076 34.4198C76.7322 34.2222 76.6186 34.0414 76.4732 33.8878C76.3279 33.7343 76.1537 33.6109 75.9606 33.5248L74.6441 36.4576Z" fill="#285A43" stroke="#285A43"/>
<path d="M87.9567 44.4674L87.9567 44.4674L87.9559 44.4661C87.8532 44.2816 87.7152 44.1193 87.5497 43.9882C87.3843 43.8571 87.1946 43.7599 86.9916 43.7021C86.7885 43.6443 86.5761 43.6271 86.3664 43.6514C86.1567 43.6757 85.9539 43.7411 85.7695 43.8438C85.5851 43.9465 85.4227 44.0845 85.2916 44.25C85.1605 44.4154 85.0633 44.6051 85.0055 44.8081C84.9477 45.0111 84.9305 45.2236 84.9548 45.4333C84.9791 45.6429 85.0445 45.8458 85.1472 46.0302L85.584 45.7869L85.1464 46.0287C85.931 47.449 86.5829 48.9387 87.0935 50.4788L87.094 50.4801C87.2292 50.8844 87.5196 51.2184 87.9011 51.4086C88.2826 51.5988 88.7241 51.6297 89.1284 51.4944C89.5326 51.3592 89.8666 51.0689 90.0569 50.6873C90.2469 50.3062 90.2779 49.8652 90.1431 49.4612C89.5696 47.7329 88.8377 46.0612 87.9567 44.4674Z" fill="#285A43" stroke="#285A43"/>
<path d="M65.178 34.0528L65.1776 34.0527C64.1917 33.9625 63.2083 33.9169 62.2553 33.9169C61.6514 33.9169 61.1674 33.9357 60.8349 33.9545C60.5076 33.973 60.327 33.9914 60.322 33.9919C60.322 33.9919 60.322 33.9919 60.3219 33.9919C59.9002 34.0328 59.4795 33.9054 59.1512 33.6377C58.8228 33.3699 58.6135 32.9832 58.5687 32.5619C58.5239 32.1405 58.6473 31.7186 58.912 31.3877C59.1768 31.0569 59.5614 30.8439 59.9823 30.7952L59.9875 30.7946L59.9875 30.7947C60.0354 30.7896 60.8763 30.702 62.2554 30.702C63.3069 30.702 64.3884 30.7523 65.4705 30.8512L65.178 34.0528ZM65.178 34.0528C65.2284 34.0573 65.2775 34.0594 65.3254 34.0594L65.3258 34.0594C65.7393 34.0591 66.1368 33.8994 66.4357 33.6135C66.7345 33.3276 66.9116 32.9375 66.9303 32.5244C66.9489 32.1113 66.8076 31.7069 66.5357 31.3952C66.2639 31.0836 65.8824 30.8888 65.4706 30.8512L65.4251 31.3491C65.7088 31.375 65.9717 31.5092 66.159 31.7239C66.3463 31.9386 66.4436 32.2172 66.4308 32.5019C66.418 32.7865 66.2959 33.0552 66.09 33.2522C65.8841 33.4491 65.6103 33.5592 65.3254 33.5594C65.2917 33.5594 65.2577 33.558 65.2232 33.5548L65.178 34.0528Z" fill="#285A43" stroke="#285A43"/>
</svg>
