<svg width="64" height="98" viewBox="0 0 64 98" fill="none" xmlns="http://www.w3.org/2000/svg">
<path d="M18.1675 12.9343L18.521 12.5807C18.6703 12.73 18.7887 12.9072 18.8695 13.1022C18.9502 13.2972 18.9918 13.5063 18.9918 13.7174C18.9918 13.9285 18.9502 14.1375 18.8695 14.3325C18.7887 14.5275 18.6703 14.7048 18.521 14.854C18.3717 15.0033 18.1945 15.1217 17.9995 15.2025C17.8045 15.2833 17.5954 15.3248 17.3843 15.3248C17.1732 15.3248 16.9642 15.2832 16.7692 15.2025C16.5742 15.1217 16.397 15.0033 16.2477 14.854L16.2477 14.854M18.1675 12.9343L16.6012 14.5004L16.2477 14.854M18.1675 12.9343L18.521 12.5807L16.0069 10.0666L16.0069 10.0666M18.1675 12.9343L16.0069 10.0666M16.2477 14.854L13.7336 12.34M16.2477 14.854L13.7336 12.34M13.7336 12.34C13.7336 12.34 13.7336 12.34 13.7336 12.34M13.7336 12.34L13.7336 12.34M16.0069 10.0666C15.7055 9.76518 15.2966 9.59582 14.8703 9.59583C14.4439 9.59583 14.0351 9.76519 13.7336 10.0667L14.0872 10.4202M16.0069 10.0666L14.0872 10.4202M14.0872 10.4202L13.7336 10.0667C13.4322 10.3681 13.2628 10.777 13.2628 11.2033M14.0872 10.4202L13.2628 11.2033M13.2628 11.2033C13.2628 11.6296 13.4322 12.0385 13.7336 12.34M13.2628 11.2033L13.7336 12.34" fill="#285A43" stroke="#285A43"/>
<path d="M44.9349 12.581L44.9349 12.581L46.0715 14.8249L46.0709 15.3249C46.0711 15.3249 46.0712 15.3249 46.0714 15.3249C46.2826 15.3251 46.4917 15.2836 46.6868 15.2027C46.8819 15.1219 47.0591 15.0034 47.2083 14.8539C47.2083 14.8539 47.2084 14.8539 47.2084 14.8539C47.2085 14.8537 47.2086 14.8536 47.2087 14.8535L49.7205 12.3413C49.871 12.1927 49.9908 12.016 50.0729 11.8211C50.1553 11.6256 50.1981 11.4156 50.1989 11.2035C50.1998 10.9913 50.1586 10.781 50.0778 10.5848C49.997 10.3886 49.8781 10.2103 49.7281 10.0603C49.578 9.9103 49.3998 9.79146 49.2036 9.71067C49.0073 9.62988 48.7971 9.58873 48.5849 9.58961C48.3727 9.59049 48.1628 9.63338 47.9672 9.71579C47.7724 9.79791 47.5957 9.91768 47.4472 10.0682L44.9349 12.581Z" fill="#285A43" stroke="#285A43"/>
<path d="M52.0128 29.6683H57.323C57.7494 29.6683 58.1582 29.499 58.4597 29.1975C58.7611 28.8961 58.9305 28.4872 58.9305 28.0609C58.9305 27.6346 58.7611 27.2257 58.4597 26.9243L58.1061 27.2778L58.4597 26.9243C58.1582 26.6228 57.7494 26.4535 57.323 26.4535H52.0128C51.5865 26.4535 51.1776 26.6228 50.8762 26.9243C50.5747 27.2257 50.4054 27.6346 50.4054 28.0609C50.4054 28.4872 50.5747 28.8961 50.8762 29.1975C51.1776 29.499 51.5865 29.6683 52.0128 29.6683Z" fill="#285A43" stroke="#285A43"/>
<path d="M6.13275 29.6683H11.443C11.8693 29.6683 12.2782 29.499 12.5796 29.1975C12.8811 28.8961 13.0504 28.4872 13.0504 28.0609C13.0504 27.6346 12.8811 27.2257 12.5796 26.9243L12.2261 27.2778L12.5796 26.9243C12.2782 26.6228 11.8693 26.4535 11.443 26.4535H6.13275C5.70643 26.4535 5.29758 26.6228 4.99613 26.9243C4.69468 27.2257 4.52533 27.6346 4.52533 28.0609C4.52533 28.4872 4.69468 28.8961 4.99613 29.1975C5.29759 29.499 5.70644 29.6683 6.13275 29.6683Z" fill="#285A43" stroke="#285A43"/>
<path d="M31.7278 9.38348C32.1542 9.38348 32.563 9.21412 32.8645 8.91267C33.1659 8.61123 33.3353 8.20237 33.3353 7.77606V2.46582C33.3353 2.0395 33.1659 1.63065 32.8645 1.3292C32.563 1.02775 32.1542 0.858398 31.7278 0.858398C31.3015 0.858398 30.8927 1.02775 30.5912 1.3292L30.9448 1.68275L30.5912 1.3292C30.2898 1.63065 30.1204 2.0395 30.1204 2.46582V7.77606C30.1204 8.20237 30.2898 8.61123 30.5912 8.91267C30.8927 9.21412 31.3015 9.38348 31.7278 9.38348Z" fill="#285A43" stroke="#285A43"/>
<path d="M17.4003 36.7144L1.14811 48.8026C0.946997 48.9522 0.783656 49.1468 0.671127 49.3707C0.558591 49.5947 0.499992 49.8418 0.5 50.0925V95.5342C0.5 95.9605 0.669349 96.3694 0.970796 96.6709L0.970802 96.6709C1.27225 96.9723 1.68111 97.1417 2.10742 97.1417H61.3483C61.7746 97.1417 62.1834 96.9723 62.4849 96.6709C62.7863 96.3694 62.9557 95.9606 62.9557 95.5342V50.0925C62.9557 49.8418 62.8971 49.5947 62.7846 49.3707C62.672 49.1468 62.5087 48.9522 62.3076 48.8026L46.0554 36.7144C47.5289 34.2785 48.3585 31.5047 48.4619 28.6546C48.571 25.6485 47.8684 22.6685 46.4278 20.0278C44.9872 17.3872 42.8619 15.1833 40.2752 13.6479C37.6885 12.1124 34.7359 11.3021 31.7279 11.3021C28.7198 11.3021 25.7672 12.1124 23.1805 13.6479C20.5939 15.1833 18.4685 17.3872 17.0279 20.0278C15.5873 22.6685 14.8847 25.6485 14.9938 28.6546C15.0972 31.5047 15.9268 34.2785 17.4003 36.7144ZM19.9914 34.787C18.8151 32.7443 18.1947 30.4251 18.1975 28.0615V28.0606C18.1963 25.9636 18.6825 23.895 19.6179 22.018C20.5532 20.1411 21.912 18.5073 23.587 17.2456C25.262 15.9838 27.2074 15.1287 29.2695 14.7477C31.3317 14.3667 33.4542 14.4702 35.4694 15.0502C37.4847 15.6301 39.3376 16.6705 40.8818 18.0893C42.4261 19.5081 43.6194 21.2664 44.3676 23.2255C45.1157 25.1845 45.3983 27.2907 45.1929 29.3776C45.0053 31.2847 44.415 33.128 43.4633 34.7865L32.687 26.7711L32.687 26.7711C32.4097 26.5649 32.0733 26.4535 31.7278 26.4535C31.3822 26.4535 31.0458 26.5649 30.7685 26.7711L30.7685 26.7711L19.9914 34.787ZM59.7407 93.9268H3.71487V50.9001L31.7279 30.0643L59.7408 50.9001L59.7407 93.9268Z" fill="#285A43" stroke="#285A43"/>
<path d="M18.7334 57.2183H18.7328H17.7405C17.3142 57.2183 16.9054 57.3876 16.6039 57.6891C16.3025 57.9905 16.1331 58.3994 16.1331 58.8257L16.1331 59.818L16.1331 59.8186C16.1377 63.669 17.6614 67.362 20.3731 70.0955C22.9683 72.7115 26.451 74.2464 30.1204 74.4045V81.545C25.4828 81.8147 20.9895 83.2733 17.0746 85.784L17.0742 85.7842C16.7156 86.0147 16.4631 86.3781 16.3724 86.7947C16.2817 87.2112 16.3602 87.6468 16.5906 88.0054C16.821 88.3641 17.1845 88.6166 17.601 88.7073C18.0173 88.7979 18.4526 88.7196 18.8111 88.4895C22.6671 86.0213 27.1496 84.7095 31.7279 84.7095C36.3054 84.7095 40.787 86.0207 44.6425 88.4881C44.8194 88.6038 45.0174 88.6835 45.2252 88.7226C45.434 88.7618 45.6485 88.7593 45.8564 88.7152C46.0642 88.671 46.2612 88.5861 46.436 88.4653C46.6109 88.3445 46.76 88.1903 46.8748 88.0115C46.9897 87.8327 47.0679 87.6329 47.105 87.4237C47.1421 87.2145 47.1374 87 47.0911 86.7926C47.0448 86.5852 46.9579 86.3891 46.8353 86.2155C46.7132 86.0427 46.5582 85.8956 46.3792 85.7828C42.4647 83.2728 37.9722 81.8146 33.3353 81.545V74.4045C37.0047 74.2464 40.4874 72.7115 43.0825 70.0955C45.7942 67.362 47.3179 63.6689 47.3225 59.8186V59.818V58.8257C47.3225 58.3994 47.1531 57.9905 46.8517 57.6891C46.5502 57.3876 46.1414 57.2183 45.7151 57.2183L44.7228 57.2183L44.7223 57.2183C41.8505 57.2212 39.0431 58.0697 36.6504 59.6578C34.5606 61.0448 32.8679 62.9423 31.7279 65.1629C30.5878 62.9423 28.8951 61.0448 26.8053 59.6578C24.4125 58.0697 21.6052 57.2212 18.7334 57.2183ZM22.6869 67.8666C20.7027 65.8823 19.5243 63.2408 19.3661 60.4513C22.1556 60.6095 24.7972 61.7878 26.7814 63.7721C28.7657 65.7563 29.944 68.3979 30.1022 71.1874C27.3127 71.0291 24.6712 69.8508 22.6869 67.8666ZM36.6742 63.7721C38.6585 61.7878 41.3 60.6095 44.0895 60.4513C43.9313 63.2408 42.7529 65.8824 40.7687 67.8666C38.7844 69.8508 36.1429 71.0291 33.3534 71.1874C33.5116 68.3978 34.69 65.7563 36.6742 63.7721Z" fill="#285A43" stroke="#285A43"/>
</svg>
