<svg width="57" height="57" viewBox="0 0 57 57" fill="none" xmlns="http://www.w3.org/2000/svg">
<circle cx="28.5" cy="28.5" r="28" stroke="white"/>
<path d="M22.4 15.6667H33.6C37.8667 15.6667 41.3333 19.1334 41.3333 23.4001V34.6001C41.3333 36.6511 40.5186 38.6181 39.0683 40.0684C37.618 41.5187 35.651 42.3334 33.6 42.3334H22.4C18.1333 42.3334 14.6667 38.8667 14.6667 34.6001V23.4001C14.6667 21.3491 15.4814 19.3821 16.9317 17.9318C18.382 16.4815 20.349 15.6667 22.4 15.6667ZM22.1333 18.3334C20.8603 18.3334 19.6394 18.8391 18.7392 19.7393C17.8391 20.6395 17.3333 21.8604 17.3333 23.1334V34.8667C17.3333 37.5201 19.48 39.6667 22.1333 39.6667H33.8667C35.1397 39.6667 36.3606 39.161 37.2608 38.2609C38.161 37.3607 38.6667 36.1398 38.6667 34.8667V23.1334C38.6667 20.4801 36.52 18.3334 33.8667 18.3334H22.1333ZM35 20.3334C35.442 20.3334 35.866 20.509 36.1785 20.8216C36.4911 21.1341 36.6667 21.5581 36.6667 22.0001C36.6667 22.4421 36.4911 22.866 36.1785 23.1786C35.866 23.4912 35.442 23.6667 35 23.6667C34.558 23.6667 34.1341 23.4912 33.8215 23.1786C33.5089 22.866 33.3333 22.4421 33.3333 22.0001C33.3333 21.5581 33.5089 21.1341 33.8215 20.8216C34.1341 20.509 34.558 20.3334 35 20.3334ZM28 22.3334C29.7681 22.3334 31.4638 23.0358 32.714 24.286C33.9643 25.5363 34.6667 27.232 34.6667 29.0001C34.6667 30.7682 33.9643 32.4639 32.714 33.7141C31.4638 34.9644 29.7681 35.6667 28 35.6667C26.2319 35.6667 24.5362 34.9644 23.286 33.7141C22.0357 32.4639 21.3333 30.7682 21.3333 29.0001C21.3333 27.232 22.0357 25.5363 23.286 24.286C24.5362 23.0358 26.2319 22.3334 28 22.3334ZM28 25.0001C26.9391 25.0001 25.9217 25.4215 25.1716 26.1717C24.4214 26.9218 24 27.9392 24 29.0001C24 30.0609 24.4214 31.0784 25.1716 31.8285C25.9217 32.5787 26.9391 33.0001 28 33.0001C29.0609 33.0001 30.0783 32.5787 30.8284 31.8285C31.5786 31.0784 32 30.0609 32 29.0001C32 27.9392 31.5786 26.9218 30.8284 26.1717C30.0783 25.4215 29.0609 25.0001 28 25.0001Z" fill="white"/>
</svg>
