<svg width="60" height="100" viewBox="0 0 60 100" fill="none" xmlns="http://www.w3.org/2000/svg">
<path d="M46.4377 67.6361V67.6368C46.4323 71.7964 44.8517 75.7997 42.014 78.8412C39.2825 81.7688 35.5813 83.596 31.6074 83.9903V91.8152C36.54 92.0865 41.3213 93.6306 45.484 96.3007L45.4843 96.3009C45.6619 96.415 45.8153 96.5629 45.9357 96.7363C46.0562 96.9097 46.1413 97.1051 46.1862 97.3113C46.2311 97.5176 46.2349 97.7306 46.1975 97.9384C46.16 98.1461 46.0821 98.3445 45.968 98.5221C45.8539 98.6997 45.7059 98.8531 45.5326 98.9735C45.3592 99.0939 45.1638 99.179 44.9575 99.2239C44.7513 99.2689 44.5382 99.2727 44.3305 99.2353C44.1227 99.1978 43.9244 99.1198 43.7468 99.0057C39.643 96.3789 34.8725 94.9829 30 94.9829C25.1275 94.9829 20.357 96.3789 16.2532 99.0057L46.4377 67.6361ZM46.4377 67.6361C46.4377 67.2098 46.2683 66.8009 45.9669 66.4995C45.6654 66.198 45.2566 66.0287 44.8303 66.0287L44.8296 66.0287M46.4377 67.6361L44.8296 66.0287M44.8296 66.0287C41.5284 66.0328 38.3047 67.0295 35.5772 68.8892C33.1715 70.5295 31.2499 72.7744 30 75.3889M44.8296 66.0287L30 75.3889M30 75.3889C28.75 72.7744 26.8285 70.5295 24.4228 68.8892C21.6953 67.0295 18.4716 66.0328 15.1703 66.0287H15.1697C14.7434 66.0287 14.3346 66.198 14.0331 66.4995C13.7316 66.8009 13.5623 67.2098 13.5623 67.6361L13.5623 67.6368C13.5677 71.7964 15.1483 75.7997 17.986 78.8412C20.7175 81.7688 24.4187 83.596 28.3926 83.9903V91.8152C23.46 92.0865 18.6787 93.6306 14.516 96.3007L14.5157 96.3009C14.157 96.5313 13.9045 96.8948 13.8138 97.3113C13.7231 97.7279 13.8016 98.1634 14.032 98.5221C14.2624 98.8808 14.6259 99.1332 15.0425 99.2239C15.4588 99.3146 15.894 99.2362 16.2526 99.0062L30 75.3889ZM45.6133 66.853C45.4057 66.6454 45.124 66.5287 44.8303 66.5287L45.9377 67.6361C45.9377 67.3424 45.821 67.0607 45.6133 66.853ZM35.4851 73.1212C37.5479 71.0584 40.2295 69.7383 43.1102 69.3562C42.7281 72.2369 41.408 74.9185 39.3452 76.9813C37.2824 79.0441 34.6008 80.3642 31.7201 80.7463C32.1022 77.8656 33.4223 75.184 35.4851 73.1212ZM20.6548 76.9813C18.592 74.9185 17.2719 72.2369 16.8898 69.3562C19.7705 69.7383 22.4521 71.0584 24.5149 73.1212C26.5777 75.184 27.8978 77.8656 28.2799 80.7463C25.3992 80.3642 22.7176 79.0441 20.6548 76.9813Z" fill="white" stroke="white"/>
<path d="M29.9994 46.1998H30C33.3326 46.1998 36.5904 45.2116 39.3614 43.36C42.1323 41.5085 44.292 38.8769 45.5673 35.798C46.8427 32.719 47.1763 29.3311 46.5262 26.0625C45.876 22.7939 44.2712 19.7915 41.9147 17.435C39.5582 15.0785 36.5558 13.4737 33.2872 12.8235C30.0186 12.1734 26.6307 12.5071 23.5517 13.7824C20.4728 15.0577 17.8412 17.2174 15.9897 19.9884C14.1382 22.7594 13.1499 26.0171 13.1499 29.3497L13.1499 29.3503C13.155 33.8175 14.9318 38.1003 18.0906 41.2591C21.2494 44.4179 25.5322 46.1948 29.9994 46.1998ZM30.0004 15.7147C32.697 15.7148 35.3331 16.5145 37.5753 18.0127C39.8176 19.511 41.5652 21.6405 42.5972 24.132C43.6292 26.6235 43.8992 29.3651 43.3731 32.0101C42.847 34.655 41.5483 37.0846 39.6414 38.9915C37.7345 40.8984 35.3049 42.197 32.66 42.7231C30.015 43.2492 27.2734 42.9792 24.7819 41.9472C22.2904 40.9151 20.1609 39.1675 18.6627 36.9252C17.1644 34.6829 16.3648 32.0467 16.3647 29.35C16.369 25.735 17.8069 22.2692 20.3631 19.713C22.9194 17.1568 26.3853 15.7189 30.0004 15.7147Z" fill="white" stroke="white"/>
<path d="M45.8378 47.4608C45.9871 47.6101 46.1643 47.7285 46.3593 47.8092C46.5543 47.89 46.7634 47.9316 46.9745 47.9316C47.1856 47.9316 47.3946 47.89 47.5896 47.8092C47.7847 47.7285 47.9619 47.61 48.1111 47.4608C48.2604 47.3115 48.3788 47.1343 48.4596 46.9393C48.5404 46.7442 48.5819 46.5352 48.5819 46.3241C48.5819 46.113 48.5404 45.904 48.4596 45.709C48.3788 45.5139 48.2604 45.3367 48.1111 45.1875L48.1111 45.1875L45.5796 42.6561C45.5796 42.6561 45.5796 42.6561 45.5796 42.6561C45.4304 42.5069 45.2532 42.3885 45.0581 42.3077C44.8631 42.2269 44.6541 42.1853 44.443 42.1853C44.2319 42.1853 44.0229 42.2269 43.8278 42.3077C43.6328 42.3884 43.4556 42.5068 43.3063 42.6561C43.1571 42.8054 43.0387 42.9826 42.9579 43.1776C42.8771 43.3726 42.8355 43.5817 42.8355 43.7928C42.8355 44.0039 42.8771 44.2129 42.9579 44.4079C43.0386 44.603 43.1571 44.7802 43.3063 44.9294L43.3063 44.9294L45.8378 47.4608ZM45.8378 47.4608L46.1876 47.111L45.8378 47.4608L45.8378 47.4608Z" fill="white" stroke="white"/>
<path d="M16.6937 13.7701L16.6937 13.77L14.1622 11.2386C14.1622 11.2386 14.1622 11.2386 14.1622 11.2386C13.8607 10.9372 13.4519 10.7678 13.0255 10.7678C12.5992 10.7678 12.1903 10.9372 11.8889 11.2386C11.5874 11.5401 11.4181 11.949 11.4181 12.3753C11.4181 12.8016 11.5874 13.2105 11.8889 13.512L11.8889 13.512L14.4204 16.0433C14.4204 16.0433 14.4204 16.0434 14.4204 16.0434C14.5696 16.1926 14.7468 16.311 14.9419 16.3918C15.1369 16.4726 15.3459 16.5142 15.557 16.5142C15.7681 16.5142 15.9771 16.4726 16.1722 16.3918C16.3672 16.311 16.5444 16.1926 16.6937 16.0434C16.8429 15.8941 16.9613 15.7169 17.0421 15.5219C17.1229 15.3268 17.1645 15.1178 17.1645 14.9067C17.1645 14.6956 17.1229 14.4866 17.0421 14.2916C16.9614 14.0965 16.8429 13.9193 16.6937 13.7701Z" fill="white" stroke="white"/>
<path d="M45.8378 11.2386L45.8378 11.2386L43.3063 13.7701L43.3063 13.7701C43.0049 14.0716 42.8355 14.4805 42.8355 14.9068C42.8355 15.3331 43.0049 15.742 43.3063 16.0434C43.6078 16.3449 44.0167 16.5142 44.443 16.5142C44.8693 16.5142 45.2782 16.3449 45.5796 16.0434C45.5796 16.0434 45.5796 16.0434 45.5796 16.0434L48.1111 13.512C48.4126 13.2105 48.5819 12.8016 48.5819 12.3753C48.5819 11.949 48.4126 11.5401 48.1111 11.2386C47.8097 10.9372 47.4008 10.7678 46.9745 10.7678C46.5482 10.7678 46.1393 10.9372 45.8378 11.2386Z" fill="white" stroke="white"/>
<path d="M16.6937 42.6561L16.6936 42.6561C16.3921 42.3547 15.9833 42.1854 15.557 42.1854C15.1307 42.1854 14.7219 42.3547 14.4204 42.6561L14.4204 42.6561L11.8889 45.1875L11.8889 45.1875C11.5874 45.4889 11.4181 45.8978 11.4181 46.3241C11.4181 46.7505 11.5874 47.1593 11.8889 47.4608C12.1903 47.7623 12.5992 47.9316 13.0255 47.9316C13.4519 47.9316 13.8607 47.7623 14.1622 47.4608L16.6937 44.9294C16.6937 44.9294 16.6937 44.9294 16.6937 44.9294C16.8429 44.7802 16.9614 44.603 17.0421 44.4079C17.1229 44.2129 17.1645 44.0039 17.1645 43.7928C17.1645 43.5817 17.1229 43.3727 17.0421 43.1776C16.9614 42.9826 16.8429 42.8054 16.6937 42.6561Z" fill="white" stroke="white"/>
<path d="M57.0032 27.7423H50.4255C49.9992 27.7423 49.5904 27.9117 49.2889 28.2131C48.9875 28.5146 48.8181 28.9234 48.8181 29.3497C48.8181 29.776 48.9875 30.1849 49.2889 30.4864C49.5904 30.7878 49.9992 30.9572 50.4255 30.9572H57.0032C57.4295 30.9572 57.8383 30.7878 58.1398 30.4864C58.4412 30.1849 58.6106 29.776 58.6106 29.3497C58.6106 28.9234 58.4412 28.5146 58.1398 28.2131C57.8383 27.9117 57.4295 27.7423 57.0032 27.7423Z" fill="white" stroke="white"/>
<path d="M9.57447 27.7423H2.99685C2.57053 27.7423 2.16168 27.9117 1.86023 28.2131C1.55878 28.5146 1.38943 28.9234 1.38943 29.3497C1.38943 29.776 1.55877 30.1849 1.86023 30.4864C2.16168 30.7878 2.57054 30.9572 2.99685 30.9572H9.57447C10.0008 30.9572 10.4096 30.7878 10.7111 30.4864C11.0125 30.1849 11.1819 29.776 11.1819 29.3497C11.1819 28.9234 11.0125 28.5146 10.7111 28.2131C10.4096 27.9117 10.0008 27.7423 9.57447 27.7423Z" fill="white" stroke="white"/>
<path d="M28.3926 49.7753V56.3529C28.3926 56.7792 28.5619 57.188 28.8634 57.4895C29.1648 57.7909 29.5737 57.9603 30 57.9603C30.4263 57.9603 30.8352 57.7909 31.1366 57.4895C31.4381 57.188 31.6074 56.7792 31.6074 56.3529V49.7753C31.6074 49.349 31.4381 48.9401 31.1366 48.6387C30.8352 48.3372 30.4263 48.1678 30 48.1678C29.5737 48.1678 29.1648 48.3372 28.8634 48.6387C28.5619 48.9401 28.3926 49.349 28.3926 49.7753Z" fill="white" stroke="white"/>
<path d="M30 10.5315C30.4263 10.5315 30.8352 10.3622 31.1366 10.0607C31.4381 9.7593 31.6074 9.35044 31.6074 8.92413V2.34644C31.6074 1.92012 31.4381 1.51127 31.1366 1.20982C30.8352 0.908367 30.4263 0.739014 30 0.739014C29.5737 0.739014 29.1648 0.908367 28.8634 1.20982C28.5619 1.51127 28.3926 1.92012 28.3926 2.34644V8.92398C28.3926 8.924 28.3926 8.92401 28.3926 8.92403C28.3926 9.13511 28.4341 9.34413 28.5149 9.53916C28.5957 9.7342 28.7141 9.91142 28.8633 10.0607C29.0126 10.21 29.1898 10.3284 29.3848 10.4092C29.5799 10.49 29.7889 10.5315 30 10.5315Z" fill="white" stroke="white"/>
</svg>
