<svg width="76" height="98" viewBox="0 0 76 98" fill="none" xmlns="http://www.w3.org/2000/svg">
<mask id="path-1-outside-1_1_758" maskUnits="userSpaceOnUse" x="0.753906" y="0.832764" width="75" height="97" fill="black">
<rect fill="white" x="0.753906" y="0.832764" width="75" height="97"/>
<path d="M74.1077 30.3774C74.0366 30.249 73.9407 30.1359 73.8256 30.0448C73.7104 29.9538 73.5783 29.8866 73.4369 29.8471C70.2445 28.954 66.4971 29.5021 63.1556 31.3507C61.1479 32.4427 59.4152 33.9776 58.0891 35.839L58.0625 35.7191C57.0481 31.142 57.0481 29.4127 58.0625 24.8356L58.8228 21.4046C58.8587 21.2427 58.8577 21.0749 58.8201 20.9134C58.7824 20.752 58.709 20.6011 58.6052 20.4718C58.5015 20.3425 58.37 20.2381 58.2205 20.1665C58.071 20.0948 57.9074 20.0576 57.7416 20.0576H43.9603C43.7945 20.0576 43.6309 20.0948 43.4814 20.1665C43.3319 20.2381 43.2004 20.3425 43.0967 20.4718C42.9929 20.601 42.9195 20.752 42.8818 20.9134C42.8442 21.0749 42.8432 21.2427 42.8791 21.4046L43.6394 24.8356C44.6536 29.4127 44.6536 31.142 43.6394 35.7191L42.8791 39.1501C42.8751 39.1681 42.8734 39.1862 42.8703 39.2043C42.8668 39.2249 42.8625 39.2454 42.8602 39.2662C42.8579 39.287 42.8575 39.3074 42.8563 39.3281C42.8552 39.3487 42.8533 39.3691 42.8533 39.3898C42.8533 39.4105 42.8552 39.4309 42.8563 39.4515C42.8575 39.4721 42.8579 39.4928 42.8602 39.5134C42.8625 39.5341 42.8668 39.5547 42.8703 39.5753C42.8734 39.5934 42.8752 39.6115 42.8791 39.6295L43.6394 43.0605C44.6538 47.6376 44.6538 49.3668 43.6394 53.9439L43.0714 56.5071H33.19L32.622 53.9439C31.6075 49.3668 31.6075 47.6376 32.622 43.0605L33.3823 39.6295C33.3862 39.6115 33.388 39.5934 33.391 39.5753C33.3946 39.5547 33.3988 39.5343 33.4012 39.5134C33.4035 39.4926 33.4039 39.4722 33.405 39.4515C33.4062 39.4309 33.4081 39.4105 33.4081 39.3898C33.4081 39.3691 33.4062 39.3487 33.405 39.3281C33.4039 39.3075 33.4035 39.2868 33.4012 39.2662C33.3988 39.2456 33.3946 39.2249 33.391 39.2043C33.388 39.1862 33.3861 39.1681 33.3823 39.1501L32.622 35.7191C31.6076 31.142 31.6076 29.4127 32.622 24.8356L33.3823 21.4046C33.3862 21.3866 33.388 21.3685 33.391 21.3504C33.3946 21.3298 33.3988 21.3094 33.4012 21.2885C33.4035 21.2677 33.4039 21.2473 33.405 21.2266C33.4062 21.206 33.4081 21.1856 33.4081 21.1649C33.4081 21.1442 33.4062 21.1238 33.405 21.1032C33.4039 21.0826 33.4035 21.0619 33.4012 21.0413C33.3988 21.0206 33.3946 21 33.391 20.9794C33.388 20.9613 33.3861 20.9432 33.3823 20.9252L32.622 17.4942C31.6075 12.9171 31.6075 11.1879 32.622 6.6108L33.3823 3.17978C33.4181 3.01793 33.4172 2.85008 33.3795 2.68864C33.3419 2.52719 33.2685 2.37625 33.1647 2.24697C33.0609 2.11769 32.9294 2.01335 32.78 1.94166C32.6305 1.86997 32.4668 1.83276 32.301 1.83276H18.5198C18.354 1.83276 18.1903 1.86998 18.0408 1.94167C17.8914 2.01336 17.7599 2.11769 17.6561 2.24698C17.5524 2.37626 17.4789 2.52719 17.4413 2.68864C17.4036 2.85009 17.4027 3.01793 17.4386 3.17978L18.1988 6.6108C19.2132 11.1879 19.2132 12.9171 18.1988 17.4942L18.1564 17.6859C16.8089 15.6569 14.9851 13.9887 12.8443 12.8269C9.50294 10.9783 5.7554 10.4305 2.56305 11.3234C2.42165 11.3629 2.28953 11.4302 2.17437 11.5213C2.05921 11.6123 1.96331 11.7254 1.89225 11.8539C1.82119 11.9823 1.77639 12.1237 1.76045 12.2696C1.74451 12.4156 1.75776 12.5632 1.79942 12.704C2.7397 15.8829 5.19534 18.766 8.5367 20.6142C10.7148 21.845 13.1682 22.5064 15.6698 22.5371C16.3341 22.5359 16.9972 22.4798 17.6523 22.3694L18.1988 24.8355C19.2131 29.4127 19.2131 31.1419 18.1988 35.7191L17.4385 39.1501C17.4345 39.168 17.4328 39.1861 17.4297 39.2042C17.4262 39.2248 17.4219 39.2453 17.4196 39.2661C17.4173 39.287 17.4169 39.3074 17.4157 39.328C17.4146 39.3487 17.4127 39.3691 17.4127 39.3897C17.4127 39.4104 17.4146 39.4309 17.4157 39.4515C17.4169 39.472 17.4173 39.4927 17.4196 39.5134C17.4219 39.534 17.4262 39.5547 17.4297 39.5753C17.4328 39.5933 17.4346 39.6114 17.4385 39.6294L18.1988 43.0605C19.2132 47.6376 19.2132 49.3667 18.1988 53.9439L17.5155 57.0274C11.7634 61.0866 8.60303 66.4611 8.60303 72.2155C8.60303 78.2211 12.0277 83.793 18.246 87.9046C18.6857 88.1899 19.004 88.6282 19.139 89.1347C19.274 89.6412 19.2161 90.1798 18.9767 90.6461L16.9476 94.5489C16.8599 94.7177 16.8171 94.9062 16.8234 95.0964C16.8297 95.2865 16.8849 95.4718 16.9836 95.6344C17.0823 95.7971 17.2213 95.9315 17.3871 96.0248C17.5529 96.1181 17.74 96.1671 17.9302 96.1671H58.512C58.7023 96.1671 58.8893 96.1181 59.0551 96.0248C59.2209 95.9315 59.3599 95.7971 59.4586 95.6344C59.5574 95.4718 59.6126 95.2865 59.6189 95.0964C59.6252 94.9062 59.5824 94.7177 59.4946 94.5489L57.4657 90.6461C57.2262 90.1798 57.1684 89.6412 57.3034 89.1347C57.4384 88.6282 57.7566 88.1898 58.1964 87.9046C64.4147 83.7929 67.8392 78.2209 67.8392 72.2154C67.8392 66.3903 64.5999 60.9552 58.713 56.879L58.0625 53.9437C57.048 49.3665 57.048 47.6374 58.0625 43.0603L58.5358 40.9246C59.1298 41.0144 59.7296 41.0599 60.3304 41.0607C62.8319 41.0299 65.2852 40.3685 67.4632 39.1379C70.8047 37.2895 73.2604 34.4063 74.2007 31.2276C74.2423 31.0868 74.2555 30.9391 74.2395 30.7932C74.2235 30.6472 74.1787 30.5059 74.1077 30.3774ZM45.8019 24.3563L45.3402 22.2723H56.362L55.9002 24.3563C54.821 29.2259 54.821 31.3287 55.9002 36.1984L56.362 38.2823H45.34L45.8018 36.1984C46.8809 31.3287 46.881 29.2259 45.8019 24.3563ZM45.8019 42.5811L45.3402 40.4971H56.362L55.9002 42.5811C54.821 47.4506 54.821 49.5534 55.9002 54.4229L56.362 56.5069H45.34L45.8018 54.4229C46.8809 49.5534 46.881 47.4506 45.8019 42.5811ZM20.3614 42.5811L19.8996 40.4971H30.9214L30.4597 42.5811C29.3805 47.4506 29.3805 49.5534 30.4597 54.4229L30.9214 56.5069H19.8995L20.3613 54.4229C21.4404 49.5534 21.4405 47.4506 20.3614 42.5811ZM20.3614 24.3563L19.8996 22.2723H30.9214L30.4597 24.3563C29.3805 29.2259 29.3805 31.3287 30.4597 36.1984L30.9214 38.2823H19.8995L20.3613 36.1984C21.4404 31.3287 21.4405 29.2259 20.3614 24.3563ZM20.3614 6.1317L19.8996 4.04771H30.9214L30.4597 6.1317C29.3805 11.0012 29.3805 13.104 30.4597 17.9735L30.9214 20.0575H19.8995L20.3613 17.9735C21.4404 13.104 21.4405 11.0012 20.3614 6.1317ZM9.60896 18.6761C7.18685 17.3364 5.32201 15.3864 4.34502 13.2106C6.70683 12.8808 9.35005 13.4252 11.7723 14.765C14.1944 16.1046 16.0593 18.0549 17.0362 20.2308C14.6737 20.5597 12.0309 20.0159 9.60896 18.6761ZM65.6244 72.2154C65.6244 77.4531 62.5525 82.3689 56.9748 86.0571C56.0776 86.6435 55.4301 87.5421 55.1577 88.5787C54.8854 89.6153 55.0075 90.7161 55.5005 91.6678L56.6882 93.9523H19.7542L20.9419 91.6678C21.4349 90.7161 21.5571 89.6153 21.2847 88.5787C21.0123 87.5421 20.3648 86.6436 19.4676 86.0572C13.8898 82.3689 10.8179 77.4532 10.8179 72.2155C10.8179 67.1504 13.7045 62.3693 18.9555 58.7218H57.4868C62.7378 62.3693 65.6244 67.1503 65.6244 72.2154ZM66.3911 37.2C63.9689 38.5396 61.3262 39.084 58.9639 38.7544C59.9407 36.5785 61.8056 34.6285 64.2278 33.2886C66.6501 31.9488 69.2926 31.4047 71.6551 31.7342C70.6782 33.91 68.8133 35.86 66.3911 37.2Z"/>
</mask>
<path d="M74.1077 30.3774C74.0366 30.249 73.9407 30.1359 73.8256 30.0448C73.7104 29.9538 73.5783 29.8866 73.4369 29.8471C70.2445 28.954 66.4971 29.5021 63.1556 31.3507C61.1479 32.4427 59.4152 33.9776 58.0891 35.839L58.0625 35.7191C57.0481 31.142 57.0481 29.4127 58.0625 24.8356L58.8228 21.4046C58.8587 21.2427 58.8577 21.0749 58.8201 20.9134C58.7824 20.752 58.709 20.6011 58.6052 20.4718C58.5015 20.3425 58.37 20.2381 58.2205 20.1665C58.071 20.0948 57.9074 20.0576 57.7416 20.0576H43.9603C43.7945 20.0576 43.6309 20.0948 43.4814 20.1665C43.3319 20.2381 43.2004 20.3425 43.0967 20.4718C42.9929 20.601 42.9195 20.752 42.8818 20.9134C42.8442 21.0749 42.8432 21.2427 42.8791 21.4046L43.6394 24.8356C44.6536 29.4127 44.6536 31.142 43.6394 35.7191L42.8791 39.1501C42.8751 39.1681 42.8734 39.1862 42.8703 39.2043C42.8668 39.2249 42.8625 39.2454 42.8602 39.2662C42.8579 39.287 42.8575 39.3074 42.8563 39.3281C42.8552 39.3487 42.8533 39.3691 42.8533 39.3898C42.8533 39.4105 42.8552 39.4309 42.8563 39.4515C42.8575 39.4721 42.8579 39.4928 42.8602 39.5134C42.8625 39.5341 42.8668 39.5547 42.8703 39.5753C42.8734 39.5934 42.8752 39.6115 42.8791 39.6295L43.6394 43.0605C44.6538 47.6376 44.6538 49.3668 43.6394 53.9439L43.0714 56.5071H33.19L32.622 53.9439C31.6075 49.3668 31.6075 47.6376 32.622 43.0605L33.3823 39.6295C33.3862 39.6115 33.388 39.5934 33.391 39.5753C33.3946 39.5547 33.3988 39.5343 33.4012 39.5134C33.4035 39.4926 33.4039 39.4722 33.405 39.4515C33.4062 39.4309 33.4081 39.4105 33.4081 39.3898C33.4081 39.3691 33.4062 39.3487 33.405 39.3281C33.4039 39.3075 33.4035 39.2868 33.4012 39.2662C33.3988 39.2456 33.3946 39.2249 33.391 39.2043C33.388 39.1862 33.3861 39.1681 33.3823 39.1501L32.622 35.7191C31.6076 31.142 31.6076 29.4127 32.622 24.8356L33.3823 21.4046C33.3862 21.3866 33.388 21.3685 33.391 21.3504C33.3946 21.3298 33.3988 21.3094 33.4012 21.2885C33.4035 21.2677 33.4039 21.2473 33.405 21.2266C33.4062 21.206 33.4081 21.1856 33.4081 21.1649C33.4081 21.1442 33.4062 21.1238 33.405 21.1032C33.4039 21.0826 33.4035 21.0619 33.4012 21.0413C33.3988 21.0206 33.3946 21 33.391 20.9794C33.388 20.9613 33.3861 20.9432 33.3823 20.9252L32.622 17.4942C31.6075 12.9171 31.6075 11.1879 32.622 6.6108L33.3823 3.17978C33.4181 3.01793 33.4172 2.85008 33.3795 2.68864C33.3419 2.52719 33.2685 2.37625 33.1647 2.24697C33.0609 2.11769 32.9294 2.01335 32.78 1.94166C32.6305 1.86997 32.4668 1.83276 32.301 1.83276H18.5198C18.354 1.83276 18.1903 1.86998 18.0408 1.94167C17.8914 2.01336 17.7599 2.11769 17.6561 2.24698C17.5524 2.37626 17.4789 2.52719 17.4413 2.68864C17.4036 2.85009 17.4027 3.01793 17.4386 3.17978L18.1988 6.6108C19.2132 11.1879 19.2132 12.9171 18.1988 17.4942L18.1564 17.6859C16.8089 15.6569 14.9851 13.9887 12.8443 12.8269C9.50294 10.9783 5.7554 10.4305 2.56305 11.3234C2.42165 11.3629 2.28953 11.4302 2.17437 11.5213C2.05921 11.6123 1.96331 11.7254 1.89225 11.8539C1.82119 11.9823 1.77639 12.1237 1.76045 12.2696C1.74451 12.4156 1.75776 12.5632 1.79942 12.704C2.7397 15.8829 5.19534 18.766 8.5367 20.6142C10.7148 21.845 13.1682 22.5064 15.6698 22.5371C16.3341 22.5359 16.9972 22.4798 17.6523 22.3694L18.1988 24.8355C19.2131 29.4127 19.2131 31.1419 18.1988 35.7191L17.4385 39.1501C17.4345 39.168 17.4328 39.1861 17.4297 39.2042C17.4262 39.2248 17.4219 39.2453 17.4196 39.2661C17.4173 39.287 17.4169 39.3074 17.4157 39.328C17.4146 39.3487 17.4127 39.3691 17.4127 39.3897C17.4127 39.4104 17.4146 39.4309 17.4157 39.4515C17.4169 39.472 17.4173 39.4927 17.4196 39.5134C17.4219 39.534 17.4262 39.5547 17.4297 39.5753C17.4328 39.5933 17.4346 39.6114 17.4385 39.6294L18.1988 43.0605C19.2132 47.6376 19.2132 49.3667 18.1988 53.9439L17.5155 57.0274C11.7634 61.0866 8.60303 66.4611 8.60303 72.2155C8.60303 78.2211 12.0277 83.793 18.246 87.9046C18.6857 88.1899 19.004 88.6282 19.139 89.1347C19.274 89.6412 19.2161 90.1798 18.9767 90.6461L16.9476 94.5489C16.8599 94.7177 16.8171 94.9062 16.8234 95.0964C16.8297 95.2865 16.8849 95.4718 16.9836 95.6344C17.0823 95.7971 17.2213 95.9315 17.3871 96.0248C17.5529 96.1181 17.74 96.1671 17.9302 96.1671H58.512C58.7023 96.1671 58.8893 96.1181 59.0551 96.0248C59.2209 95.9315 59.3599 95.7971 59.4586 95.6344C59.5574 95.4718 59.6126 95.2865 59.6189 95.0964C59.6252 94.9062 59.5824 94.7177 59.4946 94.5489L57.4657 90.6461C57.2262 90.1798 57.1684 89.6412 57.3034 89.1347C57.4384 88.6282 57.7566 88.1898 58.1964 87.9046C64.4147 83.7929 67.8392 78.2209 67.8392 72.2154C67.8392 66.3903 64.5999 60.9552 58.713 56.879L58.0625 53.9437C57.048 49.3665 57.048 47.6374 58.0625 43.0603L58.5358 40.9246C59.1298 41.0144 59.7296 41.0599 60.3304 41.0607C62.8319 41.0299 65.2852 40.3685 67.4632 39.1379C70.8047 37.2895 73.2604 34.4063 74.2007 31.2276C74.2423 31.0868 74.2555 30.9391 74.2395 30.7932C74.2235 30.6472 74.1787 30.5059 74.1077 30.3774ZM45.8019 24.3563L45.3402 22.2723H56.362L55.9002 24.3563C54.821 29.2259 54.821 31.3287 55.9002 36.1984L56.362 38.2823H45.34L45.8018 36.1984C46.8809 31.3287 46.881 29.2259 45.8019 24.3563ZM45.8019 42.5811L45.3402 40.4971H56.362L55.9002 42.5811C54.821 47.4506 54.821 49.5534 55.9002 54.4229L56.362 56.5069H45.34L45.8018 54.4229C46.8809 49.5534 46.881 47.4506 45.8019 42.5811ZM20.3614 42.5811L19.8996 40.4971H30.9214L30.4597 42.5811C29.3805 47.4506 29.3805 49.5534 30.4597 54.4229L30.9214 56.5069H19.8995L20.3613 54.4229C21.4404 49.5534 21.4405 47.4506 20.3614 42.5811ZM20.3614 24.3563L19.8996 22.2723H30.9214L30.4597 24.3563C29.3805 29.2259 29.3805 31.3287 30.4597 36.1984L30.9214 38.2823H19.8995L20.3613 36.1984C21.4404 31.3287 21.4405 29.2259 20.3614 24.3563ZM20.3614 6.1317L19.8996 4.04771H30.9214L30.4597 6.1317C29.3805 11.0012 29.3805 13.104 30.4597 17.9735L30.9214 20.0575H19.8995L20.3613 17.9735C21.4404 13.104 21.4405 11.0012 20.3614 6.1317ZM9.60896 18.6761C7.18685 17.3364 5.32201 15.3864 4.34502 13.2106C6.70683 12.8808 9.35005 13.4252 11.7723 14.765C14.1944 16.1046 16.0593 18.0549 17.0362 20.2308C14.6737 20.5597 12.0309 20.0159 9.60896 18.6761ZM65.6244 72.2154C65.6244 77.4531 62.5525 82.3689 56.9748 86.0571C56.0776 86.6435 55.4301 87.5421 55.1577 88.5787C54.8854 89.6153 55.0075 90.7161 55.5005 91.6678L56.6882 93.9523H19.7542L20.9419 91.6678C21.4349 90.7161 21.5571 89.6153 21.2847 88.5787C21.0123 87.5421 20.3648 86.6436 19.4676 86.0572C13.8898 82.3689 10.8179 77.4532 10.8179 72.2155C10.8179 67.1504 13.7045 62.3693 18.9555 58.7218H57.4868C62.7378 62.3693 65.6244 67.1503 65.6244 72.2154ZM66.3911 37.2C63.9689 38.5396 61.3262 39.084 58.9639 38.7544C59.9407 36.5785 61.8056 34.6285 64.2278 33.2886C66.6501 31.9488 69.2926 31.4047 71.6551 31.7342C70.6782 33.91 68.8133 35.86 66.3911 37.2Z" fill="#285A43"/>
<path d="M74.1077 30.3774C74.0366 30.249 73.9407 30.1359 73.8256 30.0448C73.7104 29.9538 73.5783 29.8866 73.4369 29.8471C70.2445 28.954 66.4971 29.5021 63.1556 31.3507C61.1479 32.4427 59.4152 33.9776 58.0891 35.839L58.0625 35.7191C57.0481 31.142 57.0481 29.4127 58.0625 24.8356L58.8228 21.4046C58.8587 21.2427 58.8577 21.0749 58.8201 20.9134C58.7824 20.752 58.709 20.6011 58.6052 20.4718C58.5015 20.3425 58.37 20.2381 58.2205 20.1665C58.071 20.0948 57.9074 20.0576 57.7416 20.0576H43.9603C43.7945 20.0576 43.6309 20.0948 43.4814 20.1665C43.3319 20.2381 43.2004 20.3425 43.0967 20.4718C42.9929 20.601 42.9195 20.752 42.8818 20.9134C42.8442 21.0749 42.8432 21.2427 42.8791 21.4046L43.6394 24.8356C44.6536 29.4127 44.6536 31.142 43.6394 35.7191L42.8791 39.1501C42.8751 39.1681 42.8734 39.1862 42.8703 39.2043C42.8668 39.2249 42.8625 39.2454 42.8602 39.2662C42.8579 39.287 42.8575 39.3074 42.8563 39.3281C42.8552 39.3487 42.8533 39.3691 42.8533 39.3898C42.8533 39.4105 42.8552 39.4309 42.8563 39.4515C42.8575 39.4721 42.8579 39.4928 42.8602 39.5134C42.8625 39.5341 42.8668 39.5547 42.8703 39.5753C42.8734 39.5934 42.8752 39.6115 42.8791 39.6295L43.6394 43.0605C44.6538 47.6376 44.6538 49.3668 43.6394 53.9439L43.0714 56.5071H33.19L32.622 53.9439C31.6075 49.3668 31.6075 47.6376 32.622 43.0605L33.3823 39.6295C33.3862 39.6115 33.388 39.5934 33.391 39.5753C33.3946 39.5547 33.3988 39.5343 33.4012 39.5134C33.4035 39.4926 33.4039 39.4722 33.405 39.4515C33.4062 39.4309 33.4081 39.4105 33.4081 39.3898C33.4081 39.3691 33.4062 39.3487 33.405 39.3281C33.4039 39.3075 33.4035 39.2868 33.4012 39.2662C33.3988 39.2456 33.3946 39.2249 33.391 39.2043C33.388 39.1862 33.3861 39.1681 33.3823 39.1501L32.622 35.7191C31.6076 31.142 31.6076 29.4127 32.622 24.8356L33.3823 21.4046C33.3862 21.3866 33.388 21.3685 33.391 21.3504C33.3946 21.3298 33.3988 21.3094 33.4012 21.2885C33.4035 21.2677 33.4039 21.2473 33.405 21.2266C33.4062 21.206 33.4081 21.1856 33.4081 21.1649C33.4081 21.1442 33.4062 21.1238 33.405 21.1032C33.4039 21.0826 33.4035 21.0619 33.4012 21.0413C33.3988 21.0206 33.3946 21 33.391 20.9794C33.388 20.9613 33.3861 20.9432 33.3823 20.9252L32.622 17.4942C31.6075 12.9171 31.6075 11.1879 32.622 6.6108L33.3823 3.17978C33.4181 3.01793 33.4172 2.85008 33.3795 2.68864C33.3419 2.52719 33.2685 2.37625 33.1647 2.24697C33.0609 2.11769 32.9294 2.01335 32.78 1.94166C32.6305 1.86997 32.4668 1.83276 32.301 1.83276H18.5198C18.354 1.83276 18.1903 1.86998 18.0408 1.94167C17.8914 2.01336 17.7599 2.11769 17.6561 2.24698C17.5524 2.37626 17.4789 2.52719 17.4413 2.68864C17.4036 2.85009 17.4027 3.01793 17.4386 3.17978L18.1988 6.6108C19.2132 11.1879 19.2132 12.9171 18.1988 17.4942L18.1564 17.6859C16.8089 15.6569 14.9851 13.9887 12.8443 12.8269C9.50294 10.9783 5.7554 10.4305 2.56305 11.3234C2.42165 11.3629 2.28953 11.4302 2.17437 11.5213C2.05921 11.6123 1.96331 11.7254 1.89225 11.8539C1.82119 11.9823 1.77639 12.1237 1.76045 12.2696C1.74451 12.4156 1.75776 12.5632 1.79942 12.704C2.7397 15.8829 5.19534 18.766 8.5367 20.6142C10.7148 21.845 13.1682 22.5064 15.6698 22.5371C16.3341 22.5359 16.9972 22.4798 17.6523 22.3694L18.1988 24.8355C19.2131 29.4127 19.2131 31.1419 18.1988 35.7191L17.4385 39.1501C17.4345 39.168 17.4328 39.1861 17.4297 39.2042C17.4262 39.2248 17.4219 39.2453 17.4196 39.2661C17.4173 39.287 17.4169 39.3074 17.4157 39.328C17.4146 39.3487 17.4127 39.3691 17.4127 39.3897C17.4127 39.4104 17.4146 39.4309 17.4157 39.4515C17.4169 39.472 17.4173 39.4927 17.4196 39.5134C17.4219 39.534 17.4262 39.5547 17.4297 39.5753C17.4328 39.5933 17.4346 39.6114 17.4385 39.6294L18.1988 43.0605C19.2132 47.6376 19.2132 49.3667 18.1988 53.9439L17.5155 57.0274C11.7634 61.0866 8.60303 66.4611 8.60303 72.2155C8.60303 78.2211 12.0277 83.793 18.246 87.9046C18.6857 88.1899 19.004 88.6282 19.139 89.1347C19.274 89.6412 19.2161 90.1798 18.9767 90.6461L16.9476 94.5489C16.8599 94.7177 16.8171 94.9062 16.8234 95.0964C16.8297 95.2865 16.8849 95.4718 16.9836 95.6344C17.0823 95.7971 17.2213 95.9315 17.3871 96.0248C17.5529 96.1181 17.74 96.1671 17.9302 96.1671H58.512C58.7023 96.1671 58.8893 96.1181 59.0551 96.0248C59.2209 95.9315 59.3599 95.7971 59.4586 95.6344C59.5574 95.4718 59.6126 95.2865 59.6189 95.0964C59.6252 94.9062 59.5824 94.7177 59.4946 94.5489L57.4657 90.6461C57.2262 90.1798 57.1684 89.6412 57.3034 89.1347C57.4384 88.6282 57.7566 88.1898 58.1964 87.9046C64.4147 83.7929 67.8392 78.2209 67.8392 72.2154C67.8392 66.3903 64.5999 60.9552 58.713 56.879L58.0625 53.9437C57.048 49.3665 57.048 47.6374 58.0625 43.0603L58.5358 40.9246C59.1298 41.0144 59.7296 41.0599 60.3304 41.0607C62.8319 41.0299 65.2852 40.3685 67.4632 39.1379C70.8047 37.2895 73.2604 34.4063 74.2007 31.2276C74.2423 31.0868 74.2555 30.9391 74.2395 30.7932C74.2235 30.6472 74.1787 30.5059 74.1077 30.3774ZM45.8019 24.3563L45.3402 22.2723H56.362L55.9002 24.3563C54.821 29.2259 54.821 31.3287 55.9002 36.1984L56.362 38.2823H45.34L45.8018 36.1984C46.8809 31.3287 46.881 29.2259 45.8019 24.3563ZM45.8019 42.5811L45.3402 40.4971H56.362L55.9002 42.5811C54.821 47.4506 54.821 49.5534 55.9002 54.4229L56.362 56.5069H45.34L45.8018 54.4229C46.8809 49.5534 46.881 47.4506 45.8019 42.5811ZM20.3614 42.5811L19.8996 40.4971H30.9214L30.4597 42.5811C29.3805 47.4506 29.3805 49.5534 30.4597 54.4229L30.9214 56.5069H19.8995L20.3613 54.4229C21.4404 49.5534 21.4405 47.4506 20.3614 42.5811ZM20.3614 24.3563L19.8996 22.2723H30.9214L30.4597 24.3563C29.3805 29.2259 29.3805 31.3287 30.4597 36.1984L30.9214 38.2823H19.8995L20.3613 36.1984C21.4404 31.3287 21.4405 29.2259 20.3614 24.3563ZM20.3614 6.1317L19.8996 4.04771H30.9214L30.4597 6.1317C29.3805 11.0012 29.3805 13.104 30.4597 17.9735L30.9214 20.0575H19.8995L20.3613 17.9735C21.4404 13.104 21.4405 11.0012 20.3614 6.1317ZM9.60896 18.6761C7.18685 17.3364 5.32201 15.3864 4.34502 13.2106C6.70683 12.8808 9.35005 13.4252 11.7723 14.765C14.1944 16.1046 16.0593 18.0549 17.0362 20.2308C14.6737 20.5597 12.0309 20.0159 9.60896 18.6761ZM65.6244 72.2154C65.6244 77.4531 62.5525 82.3689 56.9748 86.0571C56.0776 86.6435 55.4301 87.5421 55.1577 88.5787C54.8854 89.6153 55.0075 90.7161 55.5005 91.6678L56.6882 93.9523H19.7542L20.9419 91.6678C21.4349 90.7161 21.5571 89.6153 21.2847 88.5787C21.0123 87.5421 20.3648 86.6436 19.4676 86.0572C13.8898 82.3689 10.8179 77.4532 10.8179 72.2155C10.8179 67.1504 13.7045 62.3693 18.9555 58.7218H57.4868C62.7378 62.3693 65.6244 67.1503 65.6244 72.2154ZM66.3911 37.2C63.9689 38.5396 61.3262 39.084 58.9639 38.7544C59.9407 36.5785 61.8056 34.6285 64.2278 33.2886C66.6501 31.9488 69.2926 31.4047 71.6551 31.7342C70.6782 33.91 68.8133 35.86 66.3911 37.2Z" stroke="#285A43" stroke-width="2" mask="url(#path-1-outside-1_1_758)"/>
<path d="M51.4608 87.0032H24.9817C24.5553 87.0032 24.1465 87.1725 23.845 87.474C23.5436 87.7754 23.3742 88.1843 23.3742 88.6106C23.3742 89.0369 23.5436 89.4458 23.845 89.7472C24.1465 90.0487 24.5553 90.218 24.9817 90.218H51.4608C51.8871 90.218 52.2959 90.0487 52.5974 89.7472C52.8988 89.4458 53.0682 89.0369 53.0682 88.6106C53.0682 88.1843 52.8988 87.7754 52.5974 87.474C52.2959 87.1725 51.8871 87.0032 51.4608 87.0032Z" fill="#285A43" stroke="#285A43"/>
</svg>
