<svg width="76" height="82" viewBox="0 0 76 82" fill="none" xmlns="http://www.w3.org/2000/svg">
<path d="M29.5421 69.9768C33.4565 67.4667 37.949 66.0085 42.5858 65.7388V58.5986C38.9164 58.4404 35.4337 56.9055 32.8386 54.2895C30.1269 51.556 28.6032 47.863 28.5986 44.0126L28.5986 44.012L28.5986 43.0197C28.5986 42.5934 28.7679 42.1845 29.0694 41.8831C29.3708 41.5816 29.7797 41.4123 30.206 41.4123H31.1983H31.1988C34.0706 41.4152 36.878 42.2637 39.2707 43.8518C41.3605 45.2388 43.0532 47.1363 44.1932 49.3569C45.3333 47.1364 47.026 45.2388 49.1157 43.8518C51.5085 42.2637 54.3158 41.4152 57.1876 41.4123L57.1881 41.4123L58.1805 41.4123C58.6068 41.4123 59.0156 41.5816 59.3171 41.8831C59.6185 42.1845 59.7879 42.5934 59.7879 43.0197V44.012V44.0126C59.7833 47.863 58.2596 51.556 55.5479 54.2895C52.9527 56.9055 49.47 58.4404 45.8006 58.5986M29.5421 69.9768C29.5428 69.9763 29.5435 69.9759 29.5442 69.9755L29.81 70.3989L29.5401 69.9781C29.5407 69.9776 29.5414 69.9772 29.5421 69.9768ZM29.5421 69.9768C29.363 70.0896 29.208 70.2366 29.0858 70.4095C28.9633 70.5831 28.8763 70.7793 28.83 70.9866C28.7837 71.194 28.779 71.4085 28.8161 71.6177C28.8533 71.8269 28.9315 72.0267 29.0463 72.2055C29.1611 72.3843 29.3103 72.5385 29.4851 72.6593C29.6599 72.7801 29.8569 72.865 30.0648 72.9092C30.2726 72.9533 30.4872 72.9558 30.696 72.9166C30.9037 72.8775 31.1017 72.7978 31.2785 72.6822M31.2785 72.6822C35.1341 70.2147 39.6158 68.9034 44.1933 68.9034C48.7708 68.9034 53.2525 70.2147 57.108 72.6822M31.2785 72.6822C31.2778 72.6826 31.2771 72.6831 31.2764 72.6835L31.0068 72.2624M31.2785 72.6822C31.2795 72.6816 31.2804 72.681 31.2813 72.6803L31.0068 72.2624M57.108 72.6822C57.2849 72.7978 57.4829 72.8775 57.6906 72.9166C57.8994 72.9558 58.1139 72.9533 58.3218 72.9092C58.5296 72.865 58.7267 72.7801 58.9015 72.6593C59.0763 72.5385 59.2254 72.3843 59.3402 72.2055C59.4551 72.0267 59.5333 71.8269 59.5704 71.6177L59.0781 71.5304M57.108 72.6822C57.1071 72.6816 57.1061 72.6809 57.1052 72.6803L57.3797 72.2624M57.108 72.6822C57.1087 72.6826 57.1094 72.6831 57.1101 72.6835L57.3797 72.2624M59.0781 71.5304L59.5704 71.6177C59.6075 71.4085 59.6028 71.194 59.5565 70.9866C59.5102 70.7793 59.4233 70.5831 59.3007 70.4095C59.1787 70.2367 59.0237 70.0897 58.8447 69.9769M59.0781 71.5304C59.1037 71.3862 59.1004 71.2384 59.0685 71.0956C59.0366 70.9527 58.9767 70.8176 58.8923 70.698C58.8078 70.5784 58.7005 70.4768 58.5765 70.3989M59.0781 71.5304C59.0525 71.6745 58.9986 71.8121 58.9195 71.9353C58.8404 72.0585 58.7377 72.1647 58.6172 72.2479C58.4968 72.3312 58.3611 72.3897 58.2179 72.4201C58.0747 72.4505 57.9269 72.4522 57.783 72.4252C57.6391 72.3981 57.5021 72.3428 57.3797 72.2624M58.8447 69.9769C54.9303 67.4667 50.4376 66.0084 45.8006 65.7388M58.8447 69.9769C58.8453 69.9773 58.8459 69.9777 58.8465 69.9781L58.5765 70.3989M58.8447 69.9769C58.844 69.9765 58.8432 69.976 58.8424 69.9755L58.5765 70.3989M45.8006 65.7388V58.5986M45.8006 65.7388V66.2148H45.3006M45.8006 65.7388C45.6409 65.7295 45.4809 65.7216 45.3208 65.7152L45.3006 66.2148M45.8006 58.5986C45.6359 58.6057 45.4707 58.61 45.3052 58.6115L45.3006 58.1115M45.8006 58.5986V58.1115H45.3006M45.3006 58.1115V66.2148M45.3006 58.1115C49.0191 58.0773 52.574 56.5773 55.1929 53.9374C57.8119 51.2974 59.2834 47.7307 59.2879 44.012V43.0197C59.2879 42.726 59.1712 42.4443 58.9635 42.2366C58.7558 42.0289 58.4742 41.9123 58.1805 41.9123H57.1881L45.3006 66.2148M45.3006 66.2148C50.0191 66.4052 54.6016 67.8495 58.5765 70.3989M45.3006 66.2148L58.5765 70.3989M58.5765 70.3989L29.318 71.0956C29.2861 71.2384 29.2829 71.3862 29.3084 71.5304C29.334 71.6745 29.3879 71.8121 29.467 71.9353C29.5461 72.0585 29.6489 72.1647 29.7693 72.2479C29.8898 72.3312 30.0255 72.3897 30.1687 72.4201C30.3119 72.4505 30.4597 72.4522 30.6035 72.4252C30.7474 72.3981 30.8845 72.3428 31.0068 72.2624M57.3797 72.2624C53.4432 69.7426 48.8672 68.4034 44.1933 68.4034C39.5194 68.4034 34.9433 69.7426 31.0068 72.2624M39.2469 47.9662C41.2311 49.9505 42.4095 52.592 42.5677 55.3815C39.7782 55.2233 37.1367 54.045 35.1524 52.0607C33.1682 50.0765 31.9898 47.435 31.8316 44.6455C34.6211 44.8037 37.2626 45.982 39.2469 47.9662ZM49.1396 47.9662C51.1239 45.982 53.7654 44.8037 56.5549 44.6455C56.3967 47.435 55.2183 50.0765 53.2341 52.0607C51.2498 54.045 48.6083 55.2233 45.8188 55.3815C45.977 52.592 47.1554 49.9505 49.1396 47.9662Z" fill="#285A43" stroke="#285A43"/>
<path d="M43.2339 10.965L43.5323 11.3662L43.2339 10.965L18.1956 29.5884V6.94785C18.1956 5.28137 17.5336 3.68315 16.3552 2.50478C15.1769 1.3264 13.5786 0.664398 11.9122 0.664398C10.2457 0.664398 8.64748 1.3264 7.4691 2.50478C6.29073 3.68315 5.62872 5.28137 5.62872 6.94785V41.2194C4.02771 42.2781 2.72233 43.7293 1.83833 45.4365C0.911532 47.2263 0.481856 49.232 0.594101 51.2444L0.59411 51.2446C0.753129 54.0794 1.96603 56.7524 3.99471 58.7389C6.02339 60.7253 8.72131 61.8817 11.5589 61.9811L11.5616 61.9812C11.6797 61.9847 11.7976 61.9866 11.9162 61.9866C12.2665 61.9866 12.6166 61.9705 12.9653 61.9385V79.728C12.9653 80.1543 13.1346 80.5632 13.4361 80.8646C13.7376 81.1661 14.1464 81.3354 14.5727 81.3354H73.8136C74.2399 81.3354 74.6488 81.1661 74.9503 80.8647C75.2517 80.5632 75.4211 80.1543 75.4211 79.728V34.2864C75.4211 34.0357 75.3625 33.7886 75.2499 33.5646C75.1374 33.3407 74.974 33.1461 74.7729 32.9966L45.1525 10.965L44.8541 11.3662L45.1525 10.965C44.8752 10.7588 44.5388 10.6474 44.1932 10.6474C43.8476 10.6474 43.5112 10.7588 43.2339 10.965ZM8.00977 43.5335L8.01026 43.5332C8.26257 43.3945 8.47301 43.1907 8.6196 42.9428C8.76618 42.6951 8.84354 42.4124 8.84357 42.1245V6.94782C8.84357 6.13398 9.16686 5.35346 9.74234 4.77799C10.3178 4.20251 11.0983 3.87922 11.9122 3.87922C12.726 3.87922 13.5065 4.20251 14.082 4.77799C14.6575 5.35347 14.9808 6.13398 14.9808 6.94782V42.1245C14.9808 42.4124 15.0582 42.695 15.2047 42.9428C15.3513 43.1907 15.5618 43.3945 15.8141 43.5332L15.8146 43.5335C17.4143 44.4104 18.6721 45.8005 19.3851 47.4797C20.0981 49.1589 20.2248 51.0293 19.7447 52.7893C19.2647 54.5493 18.2058 56.0963 16.739 57.181C15.2721 58.2656 13.4827 58.8246 11.6593 58.7678C9.87921 58.7123 8.16675 58.0729 6.78575 56.9484C5.40476 55.8238 4.43186 54.2763 4.01695 52.5443C3.60203 50.8123 3.76813 48.992 4.48964 47.3637C5.21116 45.7354 6.44805 44.3896 8.00977 43.5335ZM72.2062 78.1207H16.1802V61.1562C18.0261 60.4054 19.6435 59.1803 20.8672 57.6024C22.1624 55.9322 22.965 53.9332 23.1843 51.8311C23.4035 49.729 23.0308 47.6074 22.1082 45.7059C21.226 43.8877 19.8746 42.34 18.1957 41.2211V33.5951L44.1933 14.2582L72.2063 35.0941L72.2062 78.1207Z" fill="#285A43" stroke="#285A43"/>
<path d="M10.5298 52.8053C10.9388 53.0787 11.4197 53.2246 11.9116 53.2247L10.5298 52.8053ZM10.5298 52.8053C10.1206 52.5319 9.80165 52.1433 9.61333 51.6886M10.5298 52.8053L9.61333 51.6886M9.61333 51.6886C9.42501 51.2339 9.37575 50.7336 9.47178 50.2509M9.61333 51.6886L9.47178 50.2509M9.47178 50.2509C9.5678 49.7682 9.8048 49.3248 10.1528 48.9768M9.47178 50.2509L10.1528 48.9768M10.1528 48.9768C10.5008 48.6288 10.9442 48.3919 11.4269 48.2959M10.1528 48.9768L11.4269 48.2959M11.4269 48.2959C11.9096 48.1999 12.4099 48.2491 12.8646 48.4375M11.4269 48.2959L12.8646 48.4375M12.8646 48.4375C13.3193 48.6258 13.7079 48.9448 13.9813 49.354M12.8646 48.4375L13.9813 49.354M13.9813 49.354C14.2547 49.7631 14.4006 50.2442 14.4006 50.7363M13.9813 49.354L14.4006 50.7363M14.4006 50.7363C14.3998 51.396 14.1373 52.0285 13.6708 52.495C13.2042 52.9616 12.5716 53.224 11.9117 53.2247L14.4006 50.7363ZM7.28548 47.4038L7.69109 47.6962L7.28548 47.4039C6.46281 48.5452 6.09104 49.9503 6.24162 51.3492C6.3922 52.748 7.05451 54.0418 8.10124 54.9819C9.14797 55.922 10.5052 56.442 11.9122 56.442C13.3191 56.442 14.6764 55.922 15.7231 54.9819C16.7698 54.0418 17.4321 52.748 17.5827 51.3492C17.7333 49.9503 17.3615 48.5452 16.5389 47.4039C15.7956 46.3727 14.7318 45.6227 13.5196 45.2666V9.44916C13.5196 9.02285 13.3502 8.61399 13.0488 8.31254C12.7473 8.01109 12.3385 7.84174 11.9122 7.84174C11.4859 7.84174 11.077 8.01109 10.7755 8.31254L11.1242 8.66124L10.7755 8.31254C10.4741 8.61399 10.3047 9.02284 10.3047 9.44916V45.2666C9.09255 45.6227 8.0287 46.3727 7.28548 47.4038Z" fill="#285A43" stroke="#285A43"/>
<path d="M41.8182 37.3863H41.8184L42.3026 28.8668H42.8026C42.8026 28.8659 42.8026 28.8651 42.8026 28.8642C42.8019 28.4388 42.6326 28.031 42.3318 27.7302C42.0303 27.4287 41.6215 27.2594 41.1952 27.2594C40.7689 27.2594 40.36 27.4287 40.0585 27.7302C39.7571 28.0316 39.5877 28.4405 39.5877 28.8668H39.5876L39.5879 28.879C39.5919 29.041 39.5331 29.1982 39.4239 29.3178L39.4085 29.3346L39.3947 29.3528C38.8813 30.0297 38.6034 30.856 38.6034 31.7056C38.6033 32.5552 38.8811 33.3815 39.3945 34.0585L39.4045 34.0717L39.4153 34.0842C39.5265 34.2123 39.5877 34.3762 39.5877 34.5458C39.5877 34.7154 39.5265 34.8793 39.4153 35.0073L39.4061 35.0179L39.3975 35.029C38.8749 35.704 38.5951 36.5354 38.6034 37.3889C38.6041 37.8143 38.7733 38.2221 39.0742 38.5229C39.3756 38.8244 39.7845 38.9937 40.2108 38.9937C40.6371 38.9937 41.046 38.8244 41.3474 38.5229C41.6489 38.2215 41.8182 37.8126 41.8182 37.3863Z" fill="#285A43" stroke="#285A43"/>
<path d="M48.7987 37.3863H48.7989L49.2831 28.8668H49.7831C49.7831 28.8659 49.7831 28.8651 49.7831 28.8642C49.7824 28.4388 49.6132 28.031 49.3123 27.7302C49.0109 27.4287 48.602 27.2594 48.1757 27.2594C47.7494 27.2594 47.3405 27.4287 47.0391 27.7302C46.7376 28.0316 46.5683 28.4405 46.5683 28.8668H46.5681L46.5684 28.879C46.5724 29.041 46.5136 29.1982 46.4044 29.3178L46.389 29.3346L46.3752 29.3528C45.8618 30.0297 45.5839 30.856 45.5839 31.7056C45.5838 32.5552 45.8616 33.3815 46.3749 34.0585L46.385 34.0717L46.3958 34.0843C46.507 34.2123 46.5683 34.3762 46.5683 34.5458C46.5683 34.7154 46.507 34.8793 46.3958 35.0073L46.3866 35.0179L46.378 35.029C45.8554 35.704 45.5756 36.5354 45.5839 37.3889C45.5846 37.8143 45.7538 38.2221 46.0547 38.5229C46.3561 38.8244 46.765 38.9937 47.1913 38.9937C47.6176 38.9937 48.0265 38.8244 48.3279 38.5229C48.6294 38.2215 48.7987 37.8126 48.7987 37.3863Z" fill="#285A43" stroke="#285A43"/>
</svg>
